<?xml version="1.0" encoding="utf-8"?>
<!-- Generator: Adobe Illustrator 27.9.0, SVG Export Plug-In . SVG Version: 6.00 Build 0)  -->
<svg version="1.1" id="Layer_1" xmlns="http://www.w3.org/2000/svg" xmlns:xlink="http://www.w3.org/1999/xlink" x="0px" y="0px"
	 viewBox="0 0 1920 1080" style="enable-background:new 0 0 1920 1080;" xml:space="preserve">
<style type="text/css">
	
		.st0{clip-path:url(#SVGID_00000075132895331606890180000004326104901800366779_);fill:none;stroke:#000000;stroke-width:10;stroke-miterlimit:10;}
	.st1{clip-path:url(#SVGID_00000075132895331606890180000004326104901800366779_);}
	
		.st2{opacity:0.25;clip-path:url(#SVGID_00000075132895331606890180000004326104901800366779_);fill:none;stroke:#000000;stroke-width:8;stroke-miterlimit:10;}
	
		.st3{opacity:0.15;clip-path:url(#SVGID_00000075132895331606890180000004326104901800366779_);fill:none;stroke:#000000;stroke-width:8;stroke-miterlimit:10;}
	
		.st4{opacity:0.08;clip-path:url(#SVGID_00000075132895331606890180000004326104901800366779_);fill:none;stroke:#000000;stroke-width:8;stroke-miterlimit:10;}
	
		.st5{opacity:0.06;clip-path:url(#SVGID_00000075132895331606890180000004326104901800366779_);fill:none;stroke:#000000;stroke-width:8;stroke-miterlimit:10;}
	
		.st6{opacity:0.05;clip-path:url(#SVGID_00000075132895331606890180000004326104901800366779_);fill:none;stroke:#000000;stroke-width:8;stroke-miterlimit:10;}
	
		.st7{opacity:0.01;clip-path:url(#SVGID_00000075132895331606890180000004326104901800366779_);fill:none;stroke:#000000;stroke-width:8;stroke-miterlimit:10;}
	
		.st8{opacity:0.03;clip-path:url(#SVGID_00000075132895331606890180000004326104901800366779_);fill:none;stroke:#000000;stroke-width:8;stroke-miterlimit:10;}
	
		.st9{opacity:0.69;clip-path:url(#SVGID_00000075132895331606890180000004326104901800366779_);fill:none;stroke:#000000;stroke-width:8;stroke-miterlimit:10;}
	
		.st10{opacity:0.65;clip-path:url(#SVGID_00000075132895331606890180000004326104901800366779_);fill:none;stroke:#000000;stroke-width:8;stroke-miterlimit:10;}
	
		.st11{opacity:0.55;clip-path:url(#SVGID_00000075132895331606890180000004326104901800366779_);fill:none;stroke:#000000;stroke-width:8;stroke-miterlimit:10;}
	
		.st12{opacity:0.45;clip-path:url(#SVGID_00000075132895331606890180000004326104901800366779_);fill:none;stroke:#000000;stroke-width:8;stroke-miterlimit:10;}
	
		.st13{opacity:0.35;clip-path:url(#SVGID_00000075132895331606890180000004326104901800366779_);fill:none;stroke:#000000;stroke-width:8;stroke-miterlimit:10;}
</style>
<g>
	<defs>
		<rect id="SVGID_1_" x="3.99" y="3.99" width="1912.02" height="1072.02"/>
	</defs>
	<clipPath id="SVGID_00000018226962728502544810000000230629314004870565_">
		<use xlink:href="#SVGID_1_"  style="overflow:visible;"/>
	</clipPath>
	
		<path style="clip-path:url(#SVGID_00000018226962728502544810000000230629314004870565_);fill:none;stroke:#000000;stroke-width:10;stroke-miterlimit:10;" d="
		M1039.6,427.7v225.8h-26.04c-1,28.13-24.11,50.63-52.48,50.63s-51.49-22.5-52.49-50.63h-28.2V427.7h28.16
		c0.18-28.86,23.63-52.19,52.53-52.19c28.9,0,52.33,23.33,52.52,52.19H1039.6z"/>
	<path style="clip-path:url(#SVGID_00000018226962728502544810000000230629314004870565_);" d="M1030.48,460.22V438.2h-22.02
		C1015.8,445.54,1023.14,452.88,1030.48,460.22z"/>
	<path style="clip-path:url(#SVGID_00000018226962728502544810000000230629314004870565_);" d="M991.88,654.04
		c0,17.49-14.39,31.89-31.89,31.89c-17.49,0-31.89-14.4-31.89-31.89c10.63-84.89,21.26-169.77,31.89-254.66
		C970.63,484.26,981.26,569.15,991.88,654.04z"/>
	
		<path style="opacity:0.25;clip-path:url(#SVGID_00000018226962728502544810000000230629314004870565_);fill:none;stroke:#000000;stroke-width:8;stroke-miterlimit:10;" d="
		M1334.83,535.58v394.97h-122.6c-16.52,15.7-124.35,114.79-281.72,99.53c-115.45-11.19-189.63-77.33-212.56-99.53H585.17V535.58
		 M1334.83,542.62V147.65h-122.6c-18.91-17.08-119.98-104.91-269.76-95.71c-121.62,7.47-201.06,74.36-224.51,95.71H585.17v394.97"/>
	
		<path style="opacity:0.15;clip-path:url(#SVGID_00000018226962728502544810000000230629314004870565_);fill:none;stroke:#000000;stroke-width:8;stroke-miterlimit:10;" d="
		M515.52,535.58v462.87h157.45c27.37,25.37,120.49,105.27,263.84,114.96c179.74,12.15,300.97-95.39,322.29-114.96h145.39V535.58
		 M1404.48,542.62V79.75H1259.1c-22.68-21.02-131.26-117.13-298.2-115.14C800.47-33.48,696.76,57.7,672.97,79.75H515.52v462.87"/>
	
		<path style="opacity:0.08;clip-path:url(#SVGID_00000018226962728502544810000000230629314004870565_);fill:none;stroke:#000000;stroke-width:8;stroke-miterlimit:10;" d="
		M444.96,535.58v552.86H627.4c56.24,102.91,178.1,172.69,315.02,179.88c153.43,8.06,299.94-63.83,364.16-179.88h168.47V535.58
		 M1475.04,542.62V-10.24h-168.47c-64.22-116.05-210.73-187.93-364.16-179.88C805.5-182.93,683.64-113.15,627.4-10.24H444.96v552.86
		"/>
	
		<path style="opacity:0.06;clip-path:url(#SVGID_00000018226962728502544810000000230629314004870565_);fill:none;stroke:#000000;stroke-width:8;stroke-miterlimit:10;" d="
		M372.52,535.68v640.21h208.1c12.34,17.82,143.19,199.87,380.32,203.41c245.86,3.66,383.65-187.91,394.38-203.41h192.16V535.68
		 M1547.48,542.52V-97.69h-192.16c-10.74-15.5-148.53-207.07-394.38-203.41c-237.12,3.53-367.98,185.59-380.32,203.41h-208.1v640.21
		"/>
	
		<path style="opacity:0.05;clip-path:url(#SVGID_00000018226962728502544810000000230629314004870565_);fill:none;stroke:#000000;stroke-width:8;stroke-miterlimit:10;" d="
		M288.17,535.8v726.39h237.98c19.16,24.75,170.69,213.74,432.95,218.44c274.33,4.91,435.61-196.02,452.98-218.44h219.75V535.8
		 M1631.83,542.4v-726.39h-219.75c-17.36-22.42-178.64-223.36-452.98-218.44c-262.26,4.7-413.79,193.69-432.95,218.44H288.17V542.4"
		/>
	
		<path style="opacity:0.01;clip-path:url(#SVGID_00000018226962728502544810000000230629314004870565_);fill:none;stroke:#000000;stroke-width:8;stroke-miterlimit:10;" d="
		M970.27,1724.73c-4.43,0-8.92-0.04-13.34-0.12c-81.47-1.45-161.49-16.26-237.82-44c-61.77-22.45-121.36-53.45-177.1-92.13
		c-56.93-39.5-100.39-80.38-130.2-112.22H77.57V-398.06H411.8c29.81-31.85,73.27-72.72,130.2-112.22
		c55.74-38.68,115.33-69.67,177.1-92.13c76.33-27.75,156.34-42.55,237.82-44c4.45-0.08,8.93-0.12,13.34-0.12
		c83.37,0,165.46,14.09,243.99,41.87c63.31,22.4,124.49,53.74,181.83,93.16c57.97,39.85,102.29,81.24,132.67,113.45h313.68v1874.32
		h-313.68c-30.38,32.21-74.71,73.6-132.66,113.44c-57.33,39.42-118.51,70.77-181.83,93.16
		C1135.73,1710.65,1053.64,1724.73,970.27,1724.73z"/>
	
		<path style="opacity:0.03;clip-path:url(#SVGID_00000018226962728502544810000000230629314004870565_);fill:none;stroke:#000000;stroke-width:8;stroke-miterlimit:10;" d="
		M192.57,535.35v825.91h271.85c21.88,28.15,194.98,243.03,494.56,248.37c313.37,5.59,497.61-222.88,517.44-248.37h251.02V535.35
		 M1727.43,542.85v-825.91h-251.02c-19.83-25.49-204.06-253.96-517.44-248.37C659.4-526.1,486.3-311.21,464.42-283.06H192.57v825.91
		"/>
	
		<path style="opacity:0.69;clip-path:url(#SVGID_00000018226962728502544810000000230629314004870565_);fill:none;stroke:#000000;stroke-width:8;stroke-miterlimit:10;" d="
		M836.52,535.58v169.28h43.74c13.48,31.51,42.7,52.87,75.52,55.08c36.78,2.47,71.91-19.54,87.3-55.08h40.39V535.58 M1083.48,542.62
		V373.34h-40.39c-15.4-35.53-50.52-57.54-87.3-55.08c-32.83,2.2-62.04,23.56-75.52,55.08h-43.74v169.28"/>
	
		<path style="opacity:0.65;clip-path:url(#SVGID_00000018226962728502544810000000230629314004870565_);fill:none;stroke:#000000;stroke-width:8;stroke-miterlimit:10;" d="
		M793.27,535.58v206.5h59.06c18.21,38.44,57.65,64.5,101.97,67.19c49.67,3.01,97.1-23.84,117.88-67.19h54.53v-206.5 M1126.73,542.62
		v-206.5h-54.53c-20.79-43.35-68.22-70.2-117.88-67.19c-44.32,2.69-83.77,28.75-101.97,67.19h-59.06v206.5"/>
	
		<path style="opacity:0.55;clip-path:url(#SVGID_00000018226962728502544810000000230629314004870565_);fill:none;stroke:#000000;stroke-width:8;stroke-miterlimit:10;" d="
		M744.84,535.58v246.65h76.22c23.49,45.91,74.4,77.04,131.6,80.25c64.09,3.59,125.3-28.48,152.13-80.25h70.38V535.58
		 M1175.16,542.62V295.97h-70.38c-26.83-51.77-88.03-83.84-152.13-80.25c-57.2,3.21-108.1,34.33-131.6,80.25h-76.22v246.65"/>
	
		<path style="opacity:0.45;clip-path:url(#SVGID_00000018226962728502544810000000230629314004870565_);fill:none;stroke:#000000;stroke-width:8;stroke-miterlimit:10;" d="
		M695.96,535.58v293.88h93.53c5.55,8.18,64.36,91.75,170.93,93.37c110.5,1.68,172.43-86.26,177.26-93.37h86.37V535.58
		 M1224.04,542.62V248.74h-86.37c-4.83-7.11-66.76-95.05-177.26-93.37c-106.57,1.62-165.39,85.19-170.93,93.37h-93.53v293.88"/>
	
		<path style="opacity:0.35;clip-path:url(#SVGID_00000018226962728502544810000000230629314004870565_);fill:none;stroke:#000000;stroke-width:8;stroke-miterlimit:10;" d="
		M644.64,535.58v345.96h111.71c10.41,12.46,82.04,95.26,202.85,97.52c126.83,2.37,203.35-85.98,213.01-97.52h103.15V535.58
		 M1275.36,542.62V196.66h-103.15c-11.43-12.5-89.82-95.43-215.4-92.1c-116.89,3.1-188.17,78.63-200.46,92.1H644.64v345.96"/>
</g>
</svg>
